<svg width="150" height="115" viewBox="0 0 150 115" fill="none" xmlns="http://www.w3.org/2000/svg">
<path d="M115.66 38.3386C114.28 38.6986 113.12 39.5686 112.39 40.7986C111.66 42.0286 111.46 43.4686 111.82 44.8486C111.97 45.4186 112.22 45.9286 112.53 46.4086L116.67 45.3386L116.11 45.0086C115.71 44.7686 115.42 44.3986 115.31 43.9486C115.2 43.4986 115.26 43.0286 115.5 42.6286C115.74 42.2286 116.11 41.9386 116.56 41.8286C117.01 41.7186 117.48 41.7786 117.88 42.0186L120.93 43.8186C121.08 43.9086 121.2 44.0286 121.31 44.1486H121.34L120.04 39.0986L119.71 38.9086C118.48 38.1786 117.04 37.9786 115.66 38.3386Z" fill="#CA8EF4"/>
<path d="M125.27 42.6986L127.07 39.6486C127.31 39.2486 127.68 38.9586 128.13 38.8486C128.58 38.7386 129.05 38.7986 129.45 39.0386C129.85 39.2786 130.13 39.6486 130.25 40.0986C130.37 40.5486 130.3 41.0186 130.06 41.4186L129.73 41.9786L133.87 40.9086C134 38.9486 133.07 36.9886 131.27 35.9286C128.73 34.4286 125.45 35.2786 123.95 37.8186L123.58 38.4486L124.82 43.2386L125.09 43.1686C125.12 43.0086 125.17 42.8386 125.26 42.6886L125.27 42.6986Z" fill="#CA8EF4"/>
<path d="M139.229 43.2383L125.729 46.7283L127.839 54.8883L143.809 50.7583L142.559 45.9183C142.149 44.3483 140.769 43.3083 139.229 43.2383Z" fill="#CA8EF4"/>
<path d="M107.37 55.0167L108.62 59.8567L124.34 55.7967L122.23 47.6367L108.98 51.0667C107.67 51.8767 106.96 53.4567 107.37 55.0267V55.0167Z" fill="#CA8EF4"/>
<path d="M113.51 78.7469C114.01 80.6769 115.98 81.8369 117.9 81.3369L130.13 78.1769L125.25 59.2969L109.53 63.3569L113.51 78.7469Z" fill="#CA8EF4"/>
<path d="M133.619 77.2695L146.089 74.0495C148.019 73.5495 149.179 71.5795 148.679 69.6595L144.699 54.2695L128.729 58.3995L133.609 77.2795L133.619 77.2695Z" fill="#CA8EF4"/>
<path d="M96.7497 71.2483H94.0097C94.0097 71.2483 93.9897 71.2483 93.9697 71.2483C94.3597 73.0183 94.5797 74.8583 94.5797 76.7483V83.2283C94.5797 84.5283 94.4497 85.7983 94.2597 87.0483H96.7397C98.4797 87.0483 99.8897 85.6383 99.8897 83.8983V74.3883C99.8897 72.6483 98.4797 71.2383 96.7397 71.2383L96.7497 71.2483Z" fill="#B651F2"/>
<path d="M77.8998 57.2695L79.8798 55.2895C81.1098 54.0595 81.1098 52.0695 79.8798 50.8395L77.4098 48.3695C76.1798 47.1395 74.1898 47.1395 72.9598 48.3695L66.2398 55.0895C66.1798 55.1495 66.1598 55.2195 66.1098 55.2795H63.0398V53.7995C63.0398 48.6795 58.8798 44.5195 53.7598 44.5195H41.7698C36.6498 44.5195 32.4898 48.6795 32.4898 53.7995V55.2795H31.0298C19.8598 55.2795 10.6598 63.8595 9.66979 74.7795C9.65979 74.7795 9.64979 74.7795 9.62979 74.7795C8.69979 75.0595 7.95979 75.0795 7.65979 74.8395C7.00979 74.3295 6.71979 72.4895 6.77979 71.4095C6.87979 69.6895 5.56979 68.2095 3.84979 68.1095C2.15979 68.0095 0.639793 69.3095 0.529793 71.0395C0.489793 71.6395 0.269793 76.9595 3.75979 79.7395C4.72979 80.5095 6.21979 81.2695 8.32979 81.2695C8.70979 81.2695 9.13979 81.2095 9.56979 81.1495V83.2095C9.56979 89.1295 11.9798 94.4995 15.8698 98.3895C15.3198 99.3095 14.9798 100.38 14.9798 101.54V107.69C14.9798 111.09 17.7298 113.84 21.1298 113.84H33.1198C36.5198 113.84 39.2698 111.09 39.2698 107.69V104.68H51.6498V107.69C51.6498 111.09 54.3998 113.84 57.7998 113.84H69.7898C73.1898 113.84 75.9398 111.09 75.9398 107.69V103.49C84.3498 100.58 90.4098 92.6095 90.4098 83.2195V76.7395C90.4098 68.0995 85.2698 60.6595 77.8998 57.2595V57.2695ZM38.7398 55.2895V53.8095C38.7398 52.1395 40.0998 50.7895 41.7598 50.7895H53.7498C55.4198 50.7895 56.7698 52.1495 56.7698 53.8095V55.2895H38.7398ZM75.9398 78.7695C73.7898 78.7695 72.0398 77.0295 72.0398 74.8695C72.0398 72.7095 73.7798 70.9695 75.9398 70.9695C78.0998 70.9695 79.8398 72.7095 79.8398 74.8695C79.8398 77.0295 78.0998 78.7695 75.9398 78.7695Z" fill="#B651F2"/>
</svg>
