<svg width="150" height="83" viewBox="0 0 150 83" fill="none" xmlns="http://www.w3.org/2000/svg">
<path d="M123.59 47.8915C121.78 48.3615 119.94 47.2715 119.48 45.4715C119.02 43.6715 120.1 41.8215 121.9 41.3615L146.35 35.0415L138.36 4.14154C137.85 2.17154 135.84 0.991536 133.88 1.50154L108.06 8.17154C106.09 8.68154 104.91 10.6915 105.42 12.6515L115.44 51.4315C115.95 53.4015 117.96 54.5815 119.92 54.0715L145.74 47.4015C147.71 46.8915 148.89 44.8815 148.38 42.9215L148.03 41.5815L123.58 47.9015L123.59 47.8915ZM116.9 12.8315L128.4 9.86154C129.3 9.63154 130.22 10.1715 130.46 11.0715C130.7 11.9715 130.15 12.8915 129.25 13.1315L117.75 16.1015C116.85 16.3315 115.93 15.7915 115.69 14.8915C115.45 13.9915 116 13.0715 116.9 12.8315Z" fill="#CA8EF5"/>
<path d="M46.5801 69.8683C47.2001 69.6883 47.7801 69.4283 48.2601 69.0583C60.5101 59.6783 73.0701 62.4883 81.4301 66.5083C83.1601 67.3383 85.2801 67.2283 86.9201 66.2883V23.5383C86.9201 21.7883 85.9301 20.1583 84.2601 19.1783C78.2501 15.6183 63.0101 8.59828 48.4501 18.1383C47.8701 18.5183 47.2401 18.7883 46.5801 18.9583V69.8783V69.8683Z" fill="#B651F2"/>
<path d="M79.8902 69.7386C72.4202 66.1586 61.2502 63.6386 50.4402 71.9086C48.8802 73.0986 46.8402 73.6986 44.7902 73.6986C42.7402 73.6986 40.7002 73.1086 39.1402 71.9086C28.3302 63.6386 17.1602 66.1586 9.69016 69.7386C7.52016 70.7786 4.94016 70.9186 2.66016 70.1986V72.6886C2.66016 76.7586 7.78016 79.3586 11.8002 77.2586C19.1802 73.4186 30.0302 70.8286 40.6002 79.6186C42.8902 81.5286 46.6902 81.5286 48.9902 79.6186C59.5502 70.8286 70.4102 73.4086 77.7902 77.2586C81.8102 79.3586 86.9302 76.7586 86.9302 72.6886V70.1986C84.6502 70.9186 82.0702 70.7786 79.9002 69.7386H79.8902Z" fill="#B651F2"/>
<path d="M8.14992 66.5091C16.5199 62.4991 29.0799 59.6891 41.3299 69.0691C41.8099 69.4391 42.3899 69.6991 43.0099 69.8791V18.9591C42.3499 18.7791 41.7199 18.5091 41.1399 18.1391C26.5799 8.60908 11.3299 15.6291 5.32992 19.1791C3.65992 20.1691 2.66992 21.7991 2.66992 23.5391V66.2891C4.30992 67.2291 6.42992 67.3291 8.14992 66.5091Z" fill="#B651F2"/>
</svg>
