<?xml version="1.0" encoding="UTF-8"?>
<svg id="Layer_1" xmlns="http://www.w3.org/2000/svg" version="1.1" viewBox="0 0 145 80">
  <!-- Generator: Adobe Illustrator 29.2.1, SVG Export Plug-In . SVG Version: 2.1.0 Build 116)  -->
  <defs>
    <style>
      .st0 {
        fill: #fff;
      }
    </style>
  </defs>
  <path class="st0" d="M104.38,32.22h11.46c4.21,0,5.71,2.23,5.71,5.16,0,2.56-1.3,5.16-5.47,5.16h-6.53v5.16h-5.16v-15.49ZM109.55,39.34h4.6c1.43,0,2.06-.58,2.06-1.95s-.63-1.95-2.06-1.95h-4.6v3.9Z"/>
  <path class="st0" d="M127.71,42.83l-6.88-10.61h5.99l3.47,6.57,3.47-6.57h5.99l-6.88,10.61v4.88h-5.16v-4.88Z"/>
  <g>
    <path class="st0" d="M88.59,35.22c-2.76,0-4.62,1.52-4.62,4.75s1.87,4.75,4.62,4.75,4.62-1.5,4.62-4.75-1.84-4.75-4.62-4.75Z"/>
    <path class="st0" d="M5.95,29.37v21.26h95.58v-21.26H5.95ZM26.96,47.71h-5.16v-6.49h-7.83v6.49h-5.16v-15.49h5.16v5.53h7.83v-5.53h5.16v15.49ZM45.32,35.56h-10.35v2.8h9.7v3.21h-9.7v2.8h10.35v3.34h-15.51v-15.49h15.51v3.34ZM61.91,49.33c-7.58,0-13.74-6.17-13.74-13.74v-3.36h5.25v3.36c0,4.69,3.81,8.5,8.5,8.5v5.25ZM77.08,49.2c-7.58,0-13.74-6.17-13.74-13.74v-3.36h5.25v3.36c0,4.69,3.81,8.5,8.5,8.5v5.25ZM88.59,48.19c-5.47,0-10.09-1.8-10.09-8.22s4.62-8.22,10.09-8.22,10.09,1.8,10.09,8.22-4.62,8.22-10.09,8.22Z"/>
  </g>
</svg>